# xmcd
# 
# Track frame offsets:
#     150
#     7992
#     12384
#     22469
#     33966
#     43077
#     54024
#     61738
#     73543
#     83393
#     98171
#     108303
#     118718
#     124471
#     134056
#     144403
#     157414
#     166902
#     170678
#     180207
#     189771
#     192669
#     202688
#     214428
#     215327
#     224964
#     234914
#     241847
#     252166
#     264548
#     268864
#     280106
#     291253
# 
# Disc length: 4070
# 
# Revision: 1
# Processed by: cddbd v1.5.2PL0 Copyright (c) Steve Scherf et al.
# Submitted via: fre:ac v1.0.31
# 
DISCID=eb0fe421
DTITLE=Halloween - Halloween Nuggets Disc 2
DYEAR=2014
DGENRE=Halloween
TTITLE0=Invasion - The Invasion Is Coming
TTITLE1=/ Plan 9 From Outer Space
TTITLE2=Boots Walker - They're Here
TTITLE3=The Quests - Shadows In The Night
TTITLE4=Positively 13 O'Clock - Psychotic Reaction
TTITLE5=The Spellbinders - Castin' My Spell
TTITLE6=Chance Halliday - Deep Sleep
TTITLE7=Vic Plati Quintet - The Chiller
TTITLE8=Teddy Durant - The Night Stalker
TTITLE9=Graveyard Five - Marble Orchard
TTITLE10=Glenn and Christy with The Adventures - Wombat Twist
TTITLE11=Billy Ghoulston - Zombie Stomp
TTITLE12=/ The Blob
TTITLE13=Johnny Fraser and The Regalaires - It
TTITLE14=Mr. Baseman and The Symbols - Do The Zombie
TTITLE15=The Shandells - Go Go Gorilla
TTITLE16=Ronnie Self - Go Go Cannibal
TTITLE17=/ Robot Monster
TTITLE18=The Shades - Strolling After Dark
TTITLE19=Jericho Jones - Black Magic
TTITLE20=/ The Mummy
TTITLE21=Lee Ross - The Mummy's Bracelet
TTITLE22=The Contrails - The Mummy Walk (Walking Death)
TTITLE23=/ The Werewolf
TTITLE24=Carl Bonafede and The Gemtones - The Werewolf
TTITLE25=Johnny Eager - Howl
TTITLE26=/ I Was A Teenage Frankenstein
TTITLE27=The Keytones - I Was A Teenage Monster
TTITLE28=Lord Luther with The King's Men - (I Was A) Teenage Creature
TTITLE29=/ The Astro Zombies
TTITLE30=Sonny Day and The Tony Ray Combo - Creature From Outer Space
TTITLE31=The Sabres - Spider Walk
TTITLE32=The Abstracts - Nightmare
EXTD=
EXTT0=
EXTT1=
EXTT2=
EXTT3=
EXTT4=
EXTT5=
EXTT6=
EXTT7=
EXTT8=
EXTT9=
EXTT10=
EXTT11=
EXTT12=
EXTT13=
EXTT14=
EXTT15=
EXTT16=
EXTT17=
EXTT18=
EXTT19=
EXTT20=
EXTT21=
EXTT22=
EXTT23=
EXTT24=
EXTT25=
EXTT26=
EXTT27=
EXTT28=
EXTT29=
EXTT30=
EXTT31=
EXTT32=
PLAYORDER=
